<svg width="52" height="20" viewBox="0 0 52 20" fill="none" xmlns="http://www.w3.org/2000/svg">
<path d="M14.6327 0.0558669L13.815 4.41341H5.30046V8.26816H13.3357L12.5463 12.486H5.30046V19.9441H0V0.0558669H14.6327Z" fill="white"/>
<path d="M15.7371 5.81006C15.7371 4.87896 15.8686 4.05959 16.1318 3.35196C16.4137 2.6257 16.8648 2.02048 17.4851 1.53631C18.1054 1.03352 18.9042 0.651769 19.8816 0.391061C20.859 0.130354 22.0525 0 23.4622 0C23.9697 0 24.4772 0 24.9847 0C25.511 0 26.0655 0 26.6481 0C27.2496 0 27.8981 0.00931087 28.5935 0.0279326C29.289 0.0279326 30.0596 0.037244 30.9054 0.0558669L30.116 4.41341C28.5747 4.39479 27.2778 4.38547 26.2252 4.38547C25.1914 4.36685 24.2892 4.35754 23.5186 4.35754C22.6352 4.35754 22.0431 4.45065 21.7424 4.63687C21.4604 4.82309 21.3195 5.18622 21.3195 5.72626C21.3195 5.98696 21.3383 6.20112 21.3759 6.36872C21.4135 6.53631 21.4886 6.67598 21.6014 6.78771C21.733 6.88082 21.9021 6.96462 22.1089 7.03911C22.3345 7.11359 22.6164 7.17877 22.9547 7.23464L26.1124 7.7933C27.1462 7.97952 28.0014 8.23091 28.6781 8.54749C29.3735 8.84544 29.928 9.2365 30.3415 9.72067C30.755 10.1862 31.037 10.7356 31.1874 11.3687C31.3565 12.0019 31.4411 12.7374 31.4411 13.5754V14.0503C31.4411 15.0931 31.3001 15.9963 31.0182 16.7598C30.755 17.5047 30.3039 18.1192 29.6649 18.6034C29.0258 19.0875 28.18 19.4413 27.1274 19.6648C26.0936 19.8883 24.8061 20 23.2649 20C22.7574 20 22.2593 20 21.7706 20C21.3007 20 20.7744 20 20.1917 20C19.609 20 18.9606 19.9907 18.2463 19.9721C17.5321 19.9721 16.6957 19.9628 15.7371 19.9441L16.4983 15.5866C17.9832 15.6238 19.2801 15.6425 20.3891 15.6425C21.498 15.6425 22.4754 15.6425 23.3212 15.6425C24.261 15.6425 24.8907 15.5587 25.2102 15.3911C25.5298 15.2048 25.6895 14.8045 25.6895 14.1899C25.6895 13.9106 25.6613 13.6778 25.605 13.4916C25.5674 13.3054 25.4828 13.1564 25.3512 13.0447C25.2384 12.9143 25.0599 12.8119 24.8155 12.7374C24.59 12.6443 24.2986 12.5698 23.9415 12.514L21.4322 12.095C20.2669 11.8901 19.3177 11.6387 18.5847 11.3408C17.8516 11.0242 17.2689 10.6425 16.8366 10.1955C16.4231 9.72998 16.1318 9.18063 15.9626 8.54749C15.8123 7.91434 15.7371 7.16015 15.7371 6.28492V5.81006Z" fill="white"/>
<path d="M44.8951 9.38548L52 19.9441H45.7409L41.681 13.2682L37.6775 19.9441H31.644L38.7206 9.38548L32.4052 0.0558669H38.6079L41.963 5.61453L45.2616 0.0558669H51.2388L44.8951 9.38548Z" fill="white"/>
</svg>
